<?xml version="1.0" encoding="utf-8"?>
<!-- Generator: Adobe Illustrator 21.0.0, SVG Export Plug-In . SVG Version: 6.00 Build 0)  -->
<svg version="1.1" id="Layer_1" xmlns="http://www.w3.org/2000/svg" xmlns:xlink="http://www.w3.org/1999/xlink" x="0px" y="0px"
	 viewBox="0 0 32 32" style="enable-background:new 0 0 32 32;" xml:space="preserve">
<style type="text/css">
	.st0{fill:#0183FC;}
	.st1{fill:#FFFFFF;}
</style>
<g id="Layer_2">
	<g>
		<rect x="-3" y="-2.7" class="st0" width="38" height="38"/>
		<g>
			<path class="st1" d="M4.5,5.2c0-0.3,0.3-0.6,0.6-0.6h7.7c4.2,0,7.6,3.4,7.6,7.5c0,4.2-3.4,7.6-7.6,7.6H8v8c0,0.3-0.3,0.6-0.6,0.6
				H5.2c-0.4,0-0.6-0.3-0.6-0.6L4.5,5.2L4.5,5.2z M12.7,16.3c2.3,0,4.3-1.9,4.3-4.3c0-2.3-2-4.1-4.3-4.1H8v8.4H12.7z"/>
			<path class="st1" d="M24,5.2c0-0.3,0.3-0.6,0.6-0.6h2.2c0.3,0,0.6,0.3,0.6,0.6v22.4c0,0.3-0.3,0.6-0.6,0.6h-2.2
				c-0.3,0-0.6-0.3-0.6-0.6V5.2z"/>
		</g>
	</g>
</g>
</svg>
