<?xml version="1.0" encoding="utf-8"?>
<!-- Generator: Adobe Illustrator 21.0.0, SVG Export Plug-In . SVG Version: 6.00 Build 0)  -->
<svg version="1.1" id="Layer_1" xmlns="http://www.w3.org/2000/svg" xmlns:xlink="http://www.w3.org/1999/xlink" x="0px" y="0px"
	 viewBox="0 0 24 24" style="enable-background:new 0 0 24 24;" xml:space="preserve">
<style type="text/css">
	.st0{fill:#484848;}
</style>
<path class="st0" d="M12,1.9c-6.1,0-11,4.3-11,9.6c0,3,1.6,5.8,4.3,7.6C5.2,19.6,5,20.8,4,22.3L3.4,23h0.9c2.6,0,4.4-1.6,4.9-2.2
	c0.9,0.2,1.8,0.3,2.7,0.3c6.1,0,11-4.3,11-9.6C23,6.2,18.1,1.9,12,1.9z M17.1,12.9h-4.2v4.2c0,0.5-0.4,0.9-0.9,0.9s-0.9-0.4-0.9-0.9
	v-4.2H6.9C6.4,12.9,6,12.5,6,12s0.4-0.9,0.9-0.9h4.2V6.9C11.1,6.4,11.5,6,12,6s0.9,0.4,0.9,0.9v4.2h4.2c0.5,0,0.9,0.4,0.9,0.9
	S17.6,12.9,17.1,12.9z"/>
</svg>
