<?xml version="1.0" encoding="utf-8"?>
<!-- Generator: Adobe Illustrator 20.0.0, SVG Export Plug-In . SVG Version: 6.00 Build 0)  -->
<svg version="1.1" id="Layer_1" xmlns="http://www.w3.org/2000/svg" xmlns:xlink="http://www.w3.org/1999/xlink" x="0px" y="0px"
	 viewBox="0 0 24 24" style="enable-background:new 0 0 24 24;" xml:space="preserve">
<style type="text/css">
	.st0{fill:none;}
	.st1{fill:#F7F7F7;}
</style>
<g id="Frames-24px">
	<rect class="st0" width="24" height="24"/>
</g>
<g id="Solid">
	<path class="st1" d="M22,16.7L18.3,4.9C18,3.8,16.9,3,15.7,3C14.2,3,13,4.2,13,5.7V7h-2V5.7C11,4.2,9.8,3,8.3,3
		C7.1,3,6,3.8,5.7,4.9L2,16.7c0,0.1,0,0.2,0,0.3v0.5C2,20,4,22,6.5,22s4.5-2,4.5-4.5V13h2v4.5c0,2.5,2,4.5,4.5,4.5s4.5-2,4.5-4.5V17
		C22,16.9,22,16.8,22,16.7z M6.5,20C5.1,20,4,18.9,4,17.5S5.1,15,6.5,15S9,16.1,9,17.5S7.9,20,6.5,20z M17.5,20
		c-1.4,0-2.5-1.1-2.5-2.5s1.1-2.5,2.5-2.5s2.5,1.1,2.5,2.5S18.9,20,17.5,20z"/>
</g>
</svg>
