<?xml version="1.0" encoding="UTF-8"?>
<svg xmlns="http://www.w3.org/2000/svg" xmlns:xlink="http://www.w3.org/1999/xlink" width="48pt" height="48pt" viewBox="0 0 48 48" version="1.1">
<g id="surface1">
<path style=" stroke:none;fill-rule:nonzero;fill:rgb(96.078431%,96.078431%,96.078431%);fill-opacity:1;" d="M 24 18 C 21.414063 18 19.210938 19.6875 18.375 22 L 4 22 L 4 26 L 18.375 26 C 19.210938 28.3125 21.414063 30 24 30 C 26.585938 30 28.789063 28.3125 29.625 26 L 44 26 L 44 22 L 29.625 22 C 28.789063 19.6875 26.585938 18 24 18 Z M 24 22 C 25.128906 22 26 22.871094 26 24 C 26 25.128906 25.128906 26 24 26 C 22.871094 26 22 25.128906 22 24 C 22 22.871094 22.871094 22 24 22 Z "/>
</g>
</svg>
