<?xml version="1.0" encoding="utf-8"?>
<!-- Generator: Adobe Illustrator 21.0.0, SVG Export Plug-In . SVG Version: 6.00 Build 0)  -->
<svg version="1.1" id="Layer_1" xmlns="http://www.w3.org/2000/svg" xmlns:xlink="http://www.w3.org/1999/xlink" x="0px" y="0px"
	 viewBox="0 0 20 20" style="enable-background:new 0 0 20 20;" xml:space="preserve">
<style type="text/css">
	.st0{fill:#FFFFFF;}
</style>
<path class="st0" d="M9.9,3.2C9.5,3.2,9.2,3.6,9.2,4v10l-2.6-2.6c-0.2-0.2-0.4-0.2-0.6-0.2c-0.4,0-0.8,0.4-0.8,0.8
	c0,0.2,0.1,0.4,0.3,0.6l4,3.9l0.6,0.6l0.6-0.6l4-3.9c0.3-0.3,0.3-0.8,0-1.1c-0.3-0.3-0.8-0.3-1.1,0l0,0L10.8,14V4
	c0-0.4-0.3-0.8-0.8-0.8C10,3.2,10,3.2,9.9,3.2C10,3.2,9.9,3.2,9.9,3.2z"/>
</svg>
