<?xml version="1.0" encoding="utf-8"?>
<!-- Generator: Adobe Illustrator 20.0.0, SVG Export Plug-In . SVG Version: 6.00 Build 0)  -->
<svg version="1.1" id="Layer_1" xmlns="http://www.w3.org/2000/svg" xmlns:xlink="http://www.w3.org/1999/xlink" x="0px" y="0px"
	 viewBox="0 0 24 24" style="enable-background:new 0 0 24 24;" xml:space="preserve">
<style type="text/css">
	.st0{fill:#EAEAEA;}
</style>
<path class="st0" d="M12,1.5C6.2,1.5,1.5,6.2,1.5,12S6.2,22.5,12,22.5S22.5,17.8,22.5,12S17.8,1.5,12,1.5z M14.5,17.7
	c-0.2,0.1-1.8,1.2-2.4,1.6c-0.6,0.4-3,1.8-2.6-0.9c0.9-5.3,2.7-8.4,0.6-7.1C9.6,11.7,9.2,11.9,9,12c-0.2,0.1-0.2,0.1-0.3-0.2
	c-0.2-0.3-0.2-0.3,0-0.4c0,0,3.2-2.6,4.4-2.7c1.2-0.1,0.9,1.3,0.8,1.9c-0.7,2.7-1.9,6.6-1.7,7.2c0.2,0.6,1.3-0.3,2-0.8
	c0,0,0.1-0.1,0.2,0C14.6,17.4,14.8,17.5,14.5,17.7z M13.5,7C12.7,7,12,6.3,12,5.5S12.7,4,13.5,4S15,4.7,15,5.5S14.3,7,13.5,7z"/>
</svg>
