<svg xmlns="http://www.w3.org/2000/svg" width="20" height="20" viewBox="0 0 26 26" style="fill: rgb(255, 255, 255);">
    <path d="M 17.625 0.1875 C 15.947 0.1875 14.38375 0.86725 13.09375 2.15625 C 11.63075 3.62025 10.96125 5.42075 11.15625 7.34375 C 11.303246 8.7740697 11.954572 10.212362 13 11.5 L 5.75 18.75 L 4.4375 17.4375 C 3.7975 16.7965 3.266 17.32675 2.625 17.96875 L 2 18.625 C 1.359 19.265 0.82775 19.76525 1.46875 20.40625 L 2.78125 21.71875 L 1.75 22.75 C 1.109 23.39 1.109 24.4215 1.75 25.0625 C 2.39 25.7035 3.4215 25.7035 4.0625 25.0625 L 15.4375 13.6875 C 16.669653 14.459844 18.007581 14.875 19.3125 14.875 C 20.9895 14.875 22.55575 14.19525 23.84375 12.90625 C 25.30875 11.44325 25.97825 9.64275 25.78125 7.71875 C 25.60525 5.98675 24.68575 4.24725 23.21875 2.78125 C 21.55575 1.11725 19.573 0.1875 17.625 0.1875 z M 17.6875 2.25 C 19.0815 2.25 20.52625 2.96275 21.78125 4.21875 C 22.89425 5.33075 23.58975 6.619 23.71875 7.875 C 23.85075 9.178 23.393 10.4195 22.375 11.4375 C 21.462 12.3495 20.4 12.8125 19.25 12.8125 C 17.855 12.8125 16.41125 12.09975 15.15625 10.84375 C 14.04325 9.73275 13.34775 8.4435 13.21875 7.1875 C 13.08675 5.8845 13.5445 4.643 14.5625 3.625 C 15.4745 2.713 16.5365 2.25 17.6875 2.25 z"/>
</svg>