<?xml version="1.0" encoding="utf-8"?>
<!-- Generator: Adobe Illustrator 20.0.0, SVG Export Plug-In . SVG Version: 6.00 Build 0)  -->
<svg version="1.1" id="Layer_2_1_" xmlns="http://www.w3.org/2000/svg" xmlns:xlink="http://www.w3.org/1999/xlink" x="0px" y="0px"
	 viewBox="0 0 96 96" style="enable-background:new 0 0 96 96;" xml:space="preserve">
<style type="text/css">
	.st0{display:none;fill:#FFFFFF;}
	.st1{fill:#F9F9F9;}
</style>
<path class="st0" d="M82,4.8l-1.3,1.3h-2.3c-0.8,0-1.3,0.6-1.3,1.3v8.4c0,0.8,0.7,1.3,1.3,1.3h11.3c0.8,0,1.3-0.6,1.3-1.3V7.5
	c0-0.8-0.7-1.3-1.3-1.3h-2.3l-1.3-1.3C86.3,4.8,82,4.8,82,4.8z M84.1,15.3c-2,0-3.5-1.5-3.5-3.5s1.5-3.5,3.5-3.5s3.5,1.5,3.5,3.5
	S86.1,15.3,84.1,15.3z"/>
<g id="Solid">
	<g>
		<path class="st1" d="M82.1,10.4c-2,0-3.6,1.7-3.6,3.6s1.7,3.6,3.6,3.6c1.9,0,3.6-1.7,3.6-3.6S84,10.4,82.1,10.4z"/>
		<path class="st1" d="M89.4,7.6h-1.8c-0.7,0-1.2-0.3-1.6-0.8l-0.8-1.2c-0.4-0.5-0.9-0.8-1.6-0.8h-3.5c-0.7,0-1.2,0.3-1.6,0.8
			l-0.8,1.2c-0.4,0.5-0.9,0.8-1.6,0.8h-1.8c-1,0-1.8,0.8-1.8,1.8v10c0,1,0.8,1.8,1.8,1.8H89c1,0,1.8-0.8,1.8-1.8v-10
			C91.2,8.6,90.4,7.6,89.4,7.6z M82.1,19.5c-3,0-5.5-2.5-5.5-5.5s2.5-5.5,5.5-5.5c3,0,5.5,2.5,5.5,5.5S85.1,19.5,82.1,19.5z"/>
	</g>
</g>
</svg>
