<?xml version="1.0" encoding="utf-8"?>
<!-- Generator: Adobe Illustrator 21.0.0, SVG Export Plug-In . SVG Version: 6.00 Build 0)  -->
<svg version="1.1" xmlns="http://www.w3.org/2000/svg" xmlns:xlink="http://www.w3.org/1999/xlink" x="0px" y="0px"
	 viewBox="0 0 96 96" style="enable-background:new 0 0 96 96;" xml:space="preserve">
<style type="text/css">
	.st0{fill:#262626;}
	.st1{display:none;}
	.st2{display:inline;fill:none;}
	.st3{display:inline;fill:#424242;}
	.st4{display:none;fill:#4C4C4C;}
	.st5{display:none;fill:#363636;}
	.st6{fill:#363636;}
</style>
<g id="Layer_1">
	<rect class="st0" width="96" height="96"/>
	<g id="Layer_1_1_" class="st1">
		<path class="st2" d="M-105-105h306v306h-306V-105z"/>
		<path class="st3" d="M162.8,137.3V-41.2c0-14-11.5-25.5-25.5-25.5H-41.2c-14,0-25.5,11.5-25.5,25.5v178.5
			c0,14,11.5,25.5,25.5,25.5h178.5C151.3,162.8,162.8,151.3,162.8,137.3z M3.4,67.1l31.9,38.3L79.9,48l57.4,76.5H-41.2L3.4,67.1z"/>
	</g>
	<g id="Layer_2">
	</g>
	<path class="st4" d="M162.8,137.3V-41.2c0-14-11.5-25.5-25.5-25.5H-41.2c-14,0-25.5,11.5-25.5,25.5v178.5c0,14,11.5,25.5,25.5,25.5
		h178.5C151.3,162.8,162.8,151.3,162.8,137.3z M3.4,67.1l31.9,38.3L79.9,48l57.4,76.5H-41.2L3.4,67.1z"/>
	<path class="st5" d="M85.4,47.9c0-3.3-1.1-7.7-1.9-10.9c-0.6-2.2-1.2-4.3-1.2-5.4s0.8-2.7,1.5-4.1c0.8-1.5,1.7-2.8,1.7-4.2
		c0-3.9-3.2-6.9-7.1-6.9c-1.1,0-2.6,0.4-4.9,1.2c-2.4,0.8-5.6,1.8-7.5,1.8c-1.5,0-2.7-0.6-3.9-1.3c-1.2-0.8-2.6-1.7-4.5-1.7
		c-1.8,0-3.4,0.8-4.9,1.7c-1.5,0.8-3,1.5-4.7,1.5c-1.5,0-2.6-0.6-3.8-1.3s-2.6-1.7-4.5-1.7s-3.9,0.9-5.8,1.8
		C32.4,19,31,19.7,30,19.7c-1.2,0-4.1-0.9-6.4-1.7c-3-0.9-4.8-1.5-6-1.5c-3.9,0-7.1,3.2-7.1,6.9c0,1.3,0.8,2.8,1.7,4.3
		c0.8,1.3,1.5,2.8,1.5,3.9c0,0.9-0.4,2.8-1.1,4.9c-0.9,3.4-2.1,7.9-2.1,11.6c0,3.6,1.2,7.8,2.1,11.2c0.6,2.1,1.1,4.2,1.1,5.1
		c0,1.1-0.8,2.7-1.5,4.1c-0.8,1.5-1.7,2.8-1.7,4.2c0,3.9,3.2,6.9,7.1,6.9c1.1,0,2.6-0.4,4.9-1.2c2.4-0.8,5.6-1.8,7.5-1.8
		c1.5,0,2.7,0.6,3.9,1.3c1.2,0.8,2.6,1.7,4.5,1.7c1.8,0,3.4-0.8,4.9-1.5s3.2-1.5,4.8-1.5c1.5,0,2.7,0.6,3.9,1.3
		c1.2,0.8,2.6,1.7,4.5,1.7s3.9-0.9,5.8-1.8c1.5-0.6,2.8-1.2,3.9-1.2c1.2,0,4.1,0.9,6.4,1.7c3,0.9,4.8,1.5,6,1.5
		c3.9,0,7.1-3.2,7.1-6.9c0-1.3-0.8-2.8-1.7-4.3c-0.8-1.3-1.5-2.8-1.5-3.9c0-0.9,0.4-3,1.1-5.1C84.2,55.6,85.4,51.2,85.4,47.9z
		 M71.9,65.9h-48v-36h48V65.9z"/>
	
		<image style="display:none;overflow:visible;opacity:0.39;" width="464" height="404" xlink:href="../../../../../../../Dropbox/Screenshots/Screenshot 2017-02-18 10.10.37.png"  transform="matrix(0.2299 0 0 0.2299 0 1.9598)">
	</image>
</g>
<g id="Layer_3">
	<g>
		<g>
			<path class="st6" d="M82.5,82.4L64.3,48.6c-0.5-0.9-1.7-0.9-2.2,0l-8.4,15.6l8.9,16.6c0.6,1.1,0.7,2.3,0.3,3.5h18.4
				C82.3,84.3,82.9,83.3,82.5,82.4z"/>
		</g>
		<path class="st6" d="M35.5,41.2l-22,40.9c-0.5,0.9,0.2,2.1,1.2,2.1h44c1.1,0,1.7-1.1,1.2-2.1L38,41.2
			C37.5,40.3,36.1,40.3,35.5,41.2z"/>
	</g>
</g>
<g id="Layer_2_1_">
</g>
</svg>
