<?xml version="1.0" encoding="utf-8"?>
<!-- Generator: Adobe Illustrator 21.0.0, SVG Export Plug-In . SVG Version: 6.00 Build 0)  -->
<svg version="1.1" id="Layer_2_1_" xmlns="http://www.w3.org/2000/svg" xmlns:xlink="http://www.w3.org/1999/xlink" x="0px" y="0px"
	 viewBox="0 0 96 96" style="enable-background:new 0 0 96 96;" xml:space="preserve">
<style type="text/css">
	.st0{display:none;fill:#4C4C4C;}
	.st1{fill:#484848;}
</style>
<path class="st0" d="M264.8-227.4l-8.3,8.3h-14.7c-5.1,0-8.3,3.8-8.3,8.3v53.6c0,5.1,4.5,8.3,8.3,8.3h72c5.1,0,8.3-3.8,8.3-8.3
	v-52.9c0-5.1-4.5-8.3-8.3-8.3h-14.7l-8.3-8.3C292.2-227.4,264.8-227.4,264.8-227.4z M278.1-160.5c-12.8,0-22.3-9.6-22.3-22.3
	s9.6-22.3,22.3-22.3s22.3,9.6,22.3,22.3S290.9-160.5,278.1-160.5z"/>
<path class="st1" d="M23.3,8H10.6c-1.2,0-2.1,1-2.1,2.1V25c0,1.2,1,2.1,2.1,2.1h14.9c1.2,0,2.1-1,2.1-2.1V12.2L23.3,8z M18,25
	c-1.7,0-3.2-1.4-3.2-3.2c0-1.7,1.4-3.2,3.2-3.2c1.7,0,3.2,1.4,3.2,3.2C21.2,23.5,19.7,25,18,25z M21.2,14.4H10.6v-4.2h10.6V14.4z"/>
</svg>
