<?xml version="1.0" encoding="utf-8"?>
<!-- Generator: Adobe Illustrator 20.0.0, SVG Export Plug-In . SVG Version: 6.00 Build 0)  -->
<svg version="1.1" id="Layer_1" xmlns="http://www.w3.org/2000/svg" xmlns:xlink="http://www.w3.org/1999/xlink" x="0px" y="0px"
	 viewBox="0 0 24 24" style="enable-background:new 0 0 24 24;" xml:space="preserve">
<style type="text/css">
	.st0{fill:#F7F7F7;}
</style>
<path class="st0" d="M2,5.3L3.3,4L20,20.7L18.7,22l-4-4H13v-1.7L9.7,13H8v-1.7L5.5,8.8c-1,0.7-1.6,1.9-1.6,3.2
	c0,2.3,1.8,4.1,4.1,4.1h3V18H8c-3.3,0-6-2.7-6-6c0-1.8,0.8-3.5,2.1-4.6L2,5.3 M16,6c3.3,0,6,2.7,6,6c0,2.2-1.2,4.1-3,5.2l-1.4-1.4
	c1.5-0.6,2.5-2.1,2.5-3.8c0-2.3-1.8-4.1-4.1-4.1h-3V6H16 M8,6h3v1.9H9.7L7.8,6H8 M16,11v2h-1.2l-2-2H16z"/>
</svg>
