<?xml version="1.0" encoding="utf-8"?>
<!-- Generator: Adobe Illustrator 21.0.0, SVG Export Plug-In . SVG Version: 6.00 Build 0)  -->
<svg version="1.1" id="outlines" xmlns="http://www.w3.org/2000/svg" xmlns:xlink="http://www.w3.org/1999/xlink" x="0px" y="0px"
	 viewBox="0 0 400 94.3" style="enable-background:new 0 0 400 94.3;" xml:space="preserve">
<style type="text/css">
	.st0{fill:#F2F2F2;}
	.st1{display:none;fill:#F2F2F2;}
</style>
<g>
	<g>
		<path class="st0" d="M0.7,2.2c0-0.8,0.6-1.5,1.5-1.5h18.6c9.5,0,17.3,7.7,17.3,17.1c0,9.6-7.8,17.4-17.2,17.4h-8.1v18.1
			c0,0.8-0.7,1.5-1.5,1.5H2.2c-0.8,0-1.5-0.7-1.5-1.5C0.7,53.3,0.7,2.2,0.7,2.2z M20.1,23.9c3.3,0,6.1-2.6,6.1-6.1
			c0-3.2-2.8-5.7-6.1-5.7h-7.3v11.8H20.1z"/>
		<path class="st0" d="M46,2.2c0-0.8,0.7-1.5,1.5-1.5h9.3c0.8,0,1.5,0.7,1.5,1.5v51.1c0,0.8-0.7,1.5-1.5,1.5h-9.3
			c-0.8,0-1.5-0.7-1.5-1.5V2.2z"/>
		<path class="st0" d="M71.4,2.2c0-0.8,0.6-1.5,1.5-1.5h18.6c9.5,0,17.3,7.7,17.3,17.1c0,9.6-7.8,17.4-17.2,17.4h-8.1v18.1
			c0,0.8-0.7,1.5-1.5,1.5h-9.1c-0.8,0-1.5-0.7-1.5-1.5C71.4,53.3,71.4,2.2,71.4,2.2z M90.8,23.9c3.3,0,6.1-2.6,6.1-6.1
			c0-3.2-2.8-5.7-6.1-5.7h-7.3v11.8H90.8z"/>
		<path class="st0" d="M116.7,2.2c0-0.8,0.6-1.5,1.5-1.5h32c0.8,0,1.5,0.7,1.5,1.5v8.4c0,0.8-0.6,1.5-1.5,1.5h-21.4v9.6h17.6
			c0.8,0,1.5,0.7,1.5,1.5v8.4c0,0.8-0.7,1.5-1.5,1.5h-17.6v10.4h21.4c0.8,0,1.5,0.7,1.5,1.5v8.4c0,0.8-0.6,1.5-1.5,1.5h-32
			c-0.8,0-1.5-0.7-1.5-1.5V2.2z"/>
		<path class="st0" d="M162,2.2c0-0.8,0.6-1.5,1.5-1.5h9.2c0.8,0,1.5,0.7,1.5,1.5v41.2h18.4c0.8,0,1.5,0.7,1.5,1.5v8.4
			c0,0.8-0.6,1.5-1.5,1.5h-29c-0.8,0-1.5-0.7-1.5-1.5L162,2.2L162,2.2z"/>
		<path class="st0" d="M201.4,2.2c0-0.8,0.7-1.5,1.5-1.5h9.3c0.8,0,1.5,0.7,1.5,1.5v51.1c0,0.8-0.7,1.5-1.5,1.5h-9.3
			c-0.8,0-1.5-0.7-1.5-1.5V2.2z"/>
		<path class="st0" d="M226.8,1.4c0-0.8,0.7-1.4,1.5-1.4h1.9L261,29.7h0.1V2.2c0-0.8,0.6-1.5,1.5-1.5h9.3c0.8,0,1.5,0.7,1.5,1.5v52
			c0,0.8-0.7,1.4-1.5,1.4h-1.2c-0.2,0-0.8-0.2-1-0.4l-30.5-30.7H239v28.8c0,0.8-0.6,1.5-1.5,1.5h-9.2c-0.8,0-1.5-0.7-1.5-1.5V1.4z"
			/>
		<path class="st0" d="M286.6,2.2c0-0.8,0.6-1.5,1.5-1.5h32c0.8,0,1.5,0.7,1.5,1.5v8.4c0,0.8-0.6,1.5-1.5,1.5h-21.4v9.6h17.6
			c0.8,0,1.5,0.7,1.5,1.5v8.4c0,0.8-0.7,1.5-1.5,1.5h-17.6v10.4h21.4c0.8,0,1.5,0.7,1.5,1.5v8.4c0,0.8-0.6,1.5-1.5,1.5h-32
			c-0.8,0-1.5-0.7-1.5-1.5V2.2z"/>
		<path class="st1" d="M328.4,25.9c3.2-3.4,6.3-6.8,9.5-10.2c2.6-2.9,3.9-5.2,3.9-7c0-2.2-1.4-4.9-5.4-4.9c-2.4,0-4.3,1.6-5.5,2.9
			c-0.3,0.3-0.7,0.3-1,0L329.1,6c-0.2-0.3-0.3-0.7,0-1c0,0,2.7-3.8,7.3-3.8c5.5,0,8.3,3.5,8.3,7.5c0,3.4-2.2,5.9-4.8,8.8
			c-2.5,2.6-4.9,5.3-7.4,7.9h11.4c0.4,0,0.7,0.3,0.7,0.7v1c0,0.4-0.3,0.7-0.7,0.7h-14.7c-0.4,0-0.7-0.3-0.7-0.7L328.4,25.9
			L328.4,25.9z"/>
	</g>
	<g>
		<path class="st0" d="M0.2,81.7L1.4,80c0.3-0.4,0.7-0.3,1-0.1c0.4,0.4,1.9,1.6,3.8,1.6c1.4,0,2.7-1.1,2.7-2.6
			c0-1.4-0.9-2.3-2.7-3.4c-2-1.3-4.4-3.1-4.4-6.2s2.1-6.4,7-6.4c2.9,0,5,1.5,5.5,2c0.4,0.4,0.4,0.8,0.1,1.2l-1.2,1.7
			c-0.2,0.4-0.6,0.4-1.1,0.1c-0.5-0.4-1.9-1.4-3.5-1.4S6,67.7,6,68.9c0,1.2,0.8,1.9,2.7,3.1c2,1.4,4.8,3.1,4.8,6.5
			c0,3.6-2.8,6.6-7.4,6.6c-3.2,0-5.4-1.9-5.9-2.4C0,82.5-0.1,82.2,0.2,81.7z"/>
		<path class="st0" d="M17.1,73c0.1-0.3,0.3-0.6,0.6-0.6h2.7c0.3,0,0.5,0.2,0.5,0.6l-1.6,11.2c0,0.3-0.3,0.6-0.6,0.6H16
			c-0.3,0-0.5-0.3-0.5-0.6L17.1,73z M17.9,66.2c0-1.3,1.1-2.4,2.4-2.4c1.1,0,1.9,0.8,1.9,1.9c0,1.3-1.2,2.4-2.4,2.4
			C18.6,68,17.9,67.2,17.9,66.2z"/>
		<path class="st0" d="M24.5,73c0-0.3,0.3-0.6,0.6-0.6h1.2c0.2,0,0.4,0.2,0.4,0.3l0.3,1.2c0.7-0.6,2.1-1.8,4-1.8
			c1.6,0,2.5,0.7,3.3,1.9c0.6-0.6,2.3-1.9,4.2-1.9c3.5,0,4.6,2.9,4.2,6.2l-0.8,5.9c-0.1,0.3-0.3,0.6-0.6,0.6h-2.7
			c-0.3,0-0.5-0.3-0.4-0.6l0.9-6.1c0.2-1.7-0.3-2.6-1.5-2.6c-1.5,0-2.4,1.6-2.4,1.6s-0.1,0.1-1.1,7.1c0,0.3-0.3,0.6-0.6,0.6H31
			c-0.3,0-0.5-0.3-0.4-0.6l0.9-6.1c0.2-1.6-0.2-2.6-1.5-2.6c-1.5,0-2.3,1.7-2.3,1.7l-1,7.1c0,0.3-0.3,0.6-0.6,0.6h-2.6
			c-0.3,0-0.5-0.3-0.4-0.6L24.5,73z"/>
		<path class="st0" d="M47.7,93.4C47.6,93.8,47.5,94,47,94h-2.7c-0.2,0-0.4-0.2-0.4-0.5v-0.1L46.7,73c0-0.3,0.3-0.6,0.6-0.6h1.2
			c0.2,0,0.4,0.1,0.4,0.4l0.2,1c0.6-0.7,2.2-1.7,4-1.7c2.7,0,4.5,2.5,4.5,5.6c0,4.2-2.9,7.4-6.5,7.4c-0.9,0-1.8-0.3-2.3-0.7
			L47.7,93.4z M51.2,81.7c1.7,0,3-1.9,3-3.8c0-1.4-0.7-2.5-2-2.5s-2.2,1.1-2.4,1.5l-0.4,4C49.3,81,49.9,81.7,51.2,81.7z"/>
		<path class="st0" d="M62.5,63.7c0-0.3,0.3-0.6,0.6-0.6h2.7c0.3,0,0.5,0.3,0.5,0.6l-2.9,20.5c0,0.3-0.3,0.6-0.6,0.6h-2.7
			c-0.3,0-0.5-0.3-0.4-0.6L62.5,63.7z"/>
		<path class="st0" d="M74.2,72.1c2.4,0,4,1.4,4,3.3c0,3.2-4.6,4.2-7.8,4.2c-0.1,1.3,0.5,2.3,2,2.3c0.7,0,1.7-0.4,2.2-0.7
			c0.3-0.2,0.6-0.2,0.7,0l1,1.5c0.2,0.2,0.2,0.6-0.1,0.8c-1.1,1-2.6,1.7-4.4,1.7c-3,0-4.9-2.5-4.9-5.5
			C66.9,75.7,69.9,72.1,74.2,72.1z M74.7,75.7c0-0.4-0.3-0.8-1.1-0.8c-1.2,0-2.4,1.2-2.7,2.2C72.3,77.2,74.7,76.7,74.7,75.7z"/>
		<path class="st0" d="M89,93.4c-0.1,0.4-0.2,0.6-0.7,0.6h-2.7c-0.2,0-0.4-0.2-0.4-0.5v-0.1L88,73c0-0.3,0.3-0.6,0.6-0.6h1.2
			c0.2,0,0.4,0.1,0.4,0.4l0.2,1c0.6-0.7,2.2-1.7,4-1.7c2.7,0,4.5,2.5,4.5,5.6c0,4.2-2.9,7.4-6.5,7.4c-0.9,0-1.8-0.3-2.3-0.7L89,93.4
			z M92.4,81.7c1.7,0,3-1.9,3-3.8c0-1.4-0.7-2.5-2-2.5s-2.2,1.1-2.4,1.5l-0.4,4C90.6,81,91.2,81.7,92.4,81.7z"/>
		<path class="st0" d="M102.5,73c0-0.3,0.3-0.6,0.6-0.6h1.2c0.2,0,0.4,0.2,0.5,0.4l0.3,1.2c0.5-0.6,1.8-1.9,3.3-1.9
			c0.9,0,1.6,0.3,1.9,0.5c0.2,0.2,0.2,0.4,0.1,0.7l-1.1,2c-0.2,0.3-0.4,0.4-0.6,0.2c-0.3-0.1-0.8-0.2-1.1-0.2
			c-1.1,0-1.9,1.3-1.9,1.3l-1.1,7.5c-0.1,0.4-0.3,0.6-0.7,0.6h-2.5c-0.3,0-0.5-0.3-0.4-0.6L102.5,73z"/>
		<path class="st0" d="M117.6,72.1c2.8,0,4.9,2.6,4.9,5.6c0,4-3.1,7.4-6.7,7.4c-2.9,0-4.9-2.7-4.9-5.7
			C110.8,75.5,113.9,72.1,117.6,72.1z M119,78.1c0-1.5-0.8-2.6-1.9-2.6c-1.5,0-2.9,1.6-2.9,3.6c0,1.5,0.8,2.7,2,2.7
			C117.7,81.7,119,80.1,119,78.1z"/>
		<path class="st0" d="M125.9,73c0.1-0.3,0.3-0.6,0.6-0.6h2.8c0.3,0,0.5,0.2,0.4,0.6l-2.2,15.4c-0.5,3.8-2.7,6-5.9,6
			c-1.5,0-3-0.8-3.4-1.2c-0.2-0.2-0.2-0.5,0-0.8l1-1.7c0.2-0.3,0.6-0.4,0.8-0.2c0.3,0.2,1,0.5,1.6,0.5c1.2,0,2-1,2.2-2.8L125.9,73z
			 M126.7,66.2c0-1.3,1.1-2.4,2.4-2.4c1.1,0,1.8,0.8,1.8,1.9c0,1.3-1.2,2.4-2.4,2.4C127.4,68,126.7,67.2,126.7,66.2z"/>
		<path class="st0" d="M138.9,72.1c2.4,0,4,1.4,4,3.3c0,3.2-4.6,4.2-7.8,4.2c-0.1,1.3,0.5,2.3,2,2.3c0.7,0,1.7-0.4,2.2-0.7
			c0.3-0.2,0.6-0.2,0.7,0l1,1.5c0.2,0.2,0.2,0.6-0.1,0.8c-1.1,1-2.6,1.7-4.4,1.7c-3,0-4.9-2.5-4.9-5.5
			C131.6,75.7,134.6,72.1,138.9,72.1z M139.3,75.7c0-0.4-0.3-0.8-1.1-0.8c-1.2,0-2.4,1.2-2.7,2.2C137,77.2,139.3,76.7,139.3,75.7z"
			/>
		<path class="st0" d="M150.7,72.1c1.9,0,3.4,1,4.2,2.2c0.2,0.3,0,0.6-0.2,0.9l-1.2,1.1c-0.3,0.2-0.6,0.1-0.8,0
			c-0.3-0.3-0.8-0.8-1.9-0.8c-1.5,0-3,1.5-3,3.6c0,1.5,0.8,2.7,2,2.7c1.1,0,1.8-0.8,2.2-1.2c0.2-0.2,0.5-0.3,0.8,0l1.2,1.2
			c0.2,0.2,0.3,0.6,0.1,0.9c-1.1,1.4-2.7,2.5-4.6,2.5c-3.1,0-5.3-2.4-5.3-5.7C144.1,75.1,147.1,72.1,150.7,72.1z"/>
		<path class="st0" d="M158.3,75.6h-1.1c-0.3,0-0.5-0.3-0.4-0.6l0.3-2.1c0.1-0.3,0.3-0.6,0.6-0.6h1.1l0.5-3.4
			c0.1-0.3,0.3-0.6,0.6-0.6h2.7c0.3,0,0.5,0.3,0.4,0.6l-0.5,3.5h2.2c0.3,0,0.5,0.2,0.4,0.6l-0.3,2.1c-0.1,0.3-0.3,0.6-0.6,0.6H162
			l-0.7,4.9c-0.1,0.9,0.3,1,0.7,1s0.9-0.2,1.2-0.4c0.3-0.1,0.5,0,0.6,0.3l0.3,2c0.1,0.3-0.1,0.6-0.5,0.7c-0.2,0.2-2,0.8-3.4,0.8
			c-2.1,0-3-1.5-2.7-4L158.3,75.6z"/>
		<path class="st0" d="M166.2,83.1l1-1.6c0.1-0.2,0.5-0.3,0.7-0.2c0.4,0.2,1.2,0.6,2.2,0.6c0.6,0,1-0.3,1-0.7c0-0.6-0.3-0.9-1.7-1.7
			c-1.5-0.9-2.5-1.8-2.5-3.6c0-2,1.2-3.9,4.7-3.9c1.7,0,3,0.6,3.6,1c0.2,0.2,0.4,0.6,0.2,0.9l-1.1,1.5c-0.2,0.2-0.5,0.3-0.8,0.1
			c-0.3-0.2-1.1-0.5-2.1-0.5c-0.6,0-1,0.2-1,0.7s0.4,0.7,1.2,1.2c1.9,1,3.2,1.9,3.2,3.9c0,2.1-1.6,4-4.9,4c-2,0-3.3-0.8-3.8-1.2
			C166.1,83.7,166.1,83.4,166.2,83.1z"/>
		<path class="st0" d="M185.7,73c0-0.3,0.3-0.6,0.6-0.6h1.2c0.2,0,0.4,0.2,0.4,0.3l0.3,1.2c0.7-0.6,2.1-1.8,4-1.8
			c1.6,0,2.5,0.7,3.3,1.9c0.6-0.6,2.3-1.9,4.2-1.9c3.5,0,4.6,2.9,4.2,6.2l-0.8,5.9c-0.1,0.3-0.3,0.6-0.6,0.6h-2.7
			c-0.3,0-0.5-0.3-0.4-0.6l0.9-6.1c0.2-1.7-0.3-2.6-1.5-2.6c-1.5,0-2.4,1.6-2.4,1.6s-0.1,0.1-1.1,7.1c0,0.3-0.3,0.6-0.6,0.6h-2.4
			c-0.3,0-0.5-0.3-0.4-0.6l0.9-6.1c0.2-1.6-0.2-2.6-1.5-2.6c-1.5,0-2.3,1.7-2.3,1.7l-1,7.1c0,0.3-0.3,0.6-0.6,0.6h-2.6
			c-0.3,0-0.5-0.3-0.4-0.6L185.7,73z"/>
		<path class="st0" d="M217.3,84.2c0,0.3-0.3,0.6-0.6,0.6h-1.2c-0.2,0-0.4-0.1-0.5-0.5l-0.2-0.9c-0.5,0.4-1.8,1.8-4,1.8
			c-2.6,0-4.5-2.5-4.5-5.7c0-4,2.8-7.3,6.4-7.3c1.8,0,3,1.1,3.5,1.7l0.6-1c0.1-0.2,0.3-0.4,0.6-0.4h1.2c0.3,0,0.5,0.2,0.4,0.6
			L217.3,84.2z M214.7,77.2c-0.1-0.5-0.7-1.7-2-1.7c-1.4,0-2.9,1.5-2.9,3.9c0,1.3,0.8,2.4,2,2.4c1.3,0,2.3-1.4,2.5-2L214.7,77.2z"/>
		<path class="st0" d="M222.6,73c0-0.3,0.3-0.6,0.6-0.6h1.2c0.2,0,0.4,0.2,0.4,0.4l0.3,1.1c0.6-0.5,2.1-1.8,4.2-1.8
			c3.4,0,4.7,2.9,4.3,6.1l-0.8,5.9c0,0.3-0.3,0.6-0.6,0.6h-2.7c-0.3,0-0.5-0.3-0.4-0.6L230,78c0.2-1.6-0.3-2.6-1.6-2.6
			c-1.6,0-2.7,1.7-2.7,1.7l-1,7c-0.1,0.4-0.2,0.6-0.6,0.6h-2.6c-0.3,0-0.5-0.3-0.4-0.6L222.6,73z"/>
		<path class="st0" d="M247,84.2c0,0.3-0.3,0.6-0.6,0.6h-1.2c-0.2,0-0.4-0.1-0.5-0.5l-0.2-0.9c-0.5,0.4-1.8,1.8-4,1.8
			c-2.6,0-4.5-2.5-4.5-5.7c0-4,2.7-7.3,6.4-7.3c1.8,0,3,1.1,3.5,1.7l0.6-1c0.1-0.2,0.3-0.4,0.6-0.4h1.2c0.3,0,0.5,0.2,0.4,0.6
			L247,84.2z M244.3,77.2c-0.1-0.5-0.7-1.7-2-1.7c-1.4,0-2.9,1.5-2.9,3.9c0,1.3,0.8,2.4,2,2.4c1.3,0,2.3-1.4,2.5-2L244.3,77.2z"/>
		<path class="st0" d="M250.6,79.5c0-4,2.8-7.4,6.4-7.4c1.8,0,3,1.1,3.5,1.7l0.6-1c0.1-0.2,0.4-0.4,0.6-0.4h1.2
			c0.3,0,0.5,0.2,0.4,0.6l-1.8,13.1c-0.7,5-3.3,6.7-6.7,6.7c-2,0-3.6-1.1-4.3-1.9c-0.3-0.3-0.6-0.6-0.1-1.2l1.1-1.3
			c0.3-0.4,0.7-0.2,1,0c0.4,0.3,1.3,1.1,2.5,1.1c1.5,0,2.3-1.1,2.7-3.5l0.2-1.6c-0.6,0.3-1.6,0.7-2.5,0.7
			C252.5,85.1,250.6,82.6,250.6,79.5z M256.2,81.7c1.3,0,2-0.7,2-0.7l0.6-4.3c-0.2-0.4-0.7-1.3-1.9-1.3c-1.6,0-2.8,1.8-2.8,3.8
			C254.1,80.7,254.9,81.7,256.2,81.7z"/>
		<path class="st0" d="M272.3,72.1c2.4,0,4,1.4,4,3.3c0,3.2-4.6,4.2-7.8,4.2c-0.1,1.3,0.5,2.3,2,2.3c0.7,0,1.7-0.4,2.2-0.7
			c0.3-0.2,0.6-0.2,0.7,0l1,1.5c0.2,0.2,0.2,0.6-0.1,0.8c-1.1,1-2.6,1.7-4.4,1.7c-3,0-4.9-2.5-4.9-5.5C265,75.7,268,72.1,272.3,72.1
			z M272.8,75.7c0-0.4-0.3-0.8-1.1-0.8c-1.2,0-2.4,1.2-2.7,2.2C270.5,77.2,272.8,76.7,272.8,75.7z"/>
		<path class="st0" d="M279.2,73c0-0.3,0.3-0.6,0.6-0.6h1.2c0.2,0,0.4,0.2,0.5,0.4l0.3,1.2c0.5-0.6,1.8-1.9,3.3-1.9
			c0.9,0,1.6,0.3,1.9,0.5c0.2,0.2,0.2,0.4,0.1,0.7l-1.1,2c-0.2,0.3-0.4,0.4-0.6,0.2c-0.3-0.1-0.8-0.2-1-0.2c-1.1,0-1.9,1.3-1.9,1.3
			l-1,7.5c-0.1,0.4-0.3,0.6-0.7,0.6h-2.5c-0.3,0-0.5-0.3-0.4-0.6L279.2,73z"/>
		<path class="st0" d="M296.5,75.6h-1c-0.3,0-0.5-0.3-0.5-0.6l0.3-2.1c0-0.3,0.3-0.6,0.6-0.6h1l0.5-3.3c0.7-4.4,2.9-6.2,6.1-6.2
			c1.5,0,2.9,0.7,3.3,1.2c0.2,0.2,0.2,0.5,0,0.7l-1.1,1.9c-0.2,0.4-0.5,0.4-0.8,0.2c-0.3-0.2-0.8-0.4-1.5-0.4
			c-1.2,0-1.9,0.9-2.2,2.6l-0.5,3.3h2.7c0.3,0,0.5,0.2,0.4,0.6l-0.3,2.1c0,0.3-0.3,0.6-0.6,0.6h-2.7l-2.6,17.8
			c-0.1,0.3-0.3,0.6-0.6,0.6h-2.9c-0.3,0-0.5-0.3-0.4-0.6L296.5,75.6z"/>
		<path class="st0" d="M311.3,72.1c2.8,0,4.9,2.6,4.9,5.6c0,4-3.1,7.4-6.7,7.4c-2.9,0-4.9-2.7-4.9-5.7
			C304.6,75.5,307.6,72.1,311.3,72.1z M312.8,78.1c0-1.5-0.8-2.6-1.9-2.6c-1.5,0-2.9,1.6-2.9,3.6c0,1.5,0.8,2.7,2,2.7
			C311.4,81.7,312.8,80.1,312.8,78.1z"/>
		<path class="st0" d="M319.7,73c0-0.3,0.3-0.6,0.6-0.6h1.2c0.2,0,0.4,0.2,0.5,0.4l0.3,1.2c0.5-0.6,1.8-1.9,3.3-1.9
			c0.9,0,1.6,0.3,1.9,0.5c0.2,0.2,0.2,0.4,0.1,0.7l-1.1,2c-0.2,0.3-0.4,0.4-0.6,0.2c-0.3-0.1-0.8-0.2-1.1-0.2
			c-1.1,0-1.9,1.3-1.9,1.3l-1.1,7.5c-0.1,0.4-0.3,0.6-0.7,0.6h-2.5c-0.3,0-0.5-0.3-0.4-0.6L319.7,73z"/>
		<path class="st0" d="M340.9,63.3c0.1-0.2,0.2-0.5,0.6-0.5h0.4c0.2,0,0.4,0.1,0.4,0.3l4.2,14h0.1l8.4-14c0.1-0.2,0.3-0.3,0.5-0.3
			h0.5c0.2,0,0.4,0.2,0.4,0.5l0.3,20.8c0,0.4-0.3,0.7-0.6,0.7h-3c-0.3,0-0.5-0.2-0.5-0.5l0.2-11.1h-0.1l-6.5,11.5
			c-0.1,0.2-0.3,0.3-0.5,0.3h-0.5c-0.2,0-0.4-0.2-0.4-0.3l-3.2-11.5c0,0,0,0-0.1,0l-3,11.1c-0.1,0.2-0.2,0.5-0.6,0.5H335
			c-0.3,0-0.6-0.3-0.4-0.7L340.9,63.3z"/>
		<path class="st0" d="M370.7,84.2c0,0.3-0.3,0.6-0.6,0.6h-1.2c-0.2,0-0.4-0.1-0.5-0.5l-0.2-0.9c-0.5,0.4-1.8,1.8-4,1.8
			c-2.6,0-4.5-2.5-4.5-5.7c0-4,2.7-7.3,6.4-7.3c1.8,0,3,1.1,3.5,1.7l0.6-1c0.1-0.2,0.3-0.4,0.6-0.4h1.2c0.3,0,0.5,0.2,0.4,0.6
			L370.7,84.2z M368,77.2c-0.1-0.5-0.7-1.7-2-1.7c-1.4,0-2.9,1.5-2.9,3.9c0,1.3,0.8,2.4,2,2.4c1.3,0,2.3-1.4,2.5-2L368,77.2z"/>
		<path class="st0" d="M374.4,73.2c-0.1-0.4,0-0.8,0.5-0.8h2.7c0.2,0,0.4,0.2,0.4,0.3l1.6,7.3l0,0l3.6-7.3c0.1-0.3,0.4-0.3,0.6-0.3
			h2.8c0.4,0,0.6,0.4,0.3,0.8l-11.4,20.5c-0.1,0.2-0.3,0.4-0.5,0.4h-2.9c-0.4,0-0.6-0.3-0.3-0.7l5.3-9.4L374.4,73.2z"/>
		<path class="st0" d="M398.4,84.2c0,0.3-0.3,0.6-0.6,0.6h-1.2c-0.2,0-0.4-0.1-0.5-0.5l-0.2-0.9c-0.5,0.4-1.8,1.8-4,1.8
			c-2.6,0-4.5-2.5-4.5-5.7c0-4,2.8-7.3,6.4-7.3c1.8,0,3,1.1,3.5,1.7l0.6-1c0.1-0.2,0.3-0.4,0.6-0.4h1.2c0.3,0,0.5,0.2,0.4,0.6
			L398.4,84.2z M395.8,77.2c-0.1-0.5-0.7-1.7-2-1.7c-1.4,0-2.9,1.5-2.9,3.9c0,1.3,0.8,2.4,2,2.4c1.3,0,2.3-1.4,2.5-2L395.8,77.2z"/>
	</g>
</g>
</svg>
