<?xml version="1.0" encoding="UTF-8"?>
<svg xmlns="http://www.w3.org/2000/svg" xmlns:xlink="http://www.w3.org/1999/xlink" width="48pt" height="48pt" viewBox="0 0 48 48" version="1.1">
<g id="surface1">
<path style=" stroke:none;fill-rule:nonzero;fill:rgb(96.078431%,96.078431%,96.078431%);fill-opacity:1;" d="M 12 4 C 8.710938 4 6 6.710938 6 10 C 6 12.585938 7.6875 14.789063 10 15.625 L 10 32.375 C 7.6875 33.210938 6 35.414063 6 38 C 6 41.289063 8.710938 44 12 44 C 15.289063 44 18 41.289063 18 38 C 18 35.414063 16.3125 33.210938 14 32.375 L 14 15.625 C 16.3125 14.789063 18 12.585938 18 10 C 18 6.710938 15.289063 4 12 4 Z M 26 4 L 20 10 L 26 16 L 26 12 L 28 12 C 31.335938 12 34 14.664063 34 18 L 34 32.375 C 31.6875 33.210938 30 35.414063 30 38 C 30 41.289063 32.710938 44 36 44 C 39.289063 44 42 41.289063 42 38 C 42 35.414063 40.3125 33.210938 38 32.375 L 38 18 C 38 12.5 33.5 8 28 8 L 26 8 Z M 12 8 C 13.128906 8 14 8.871094 14 10 C 14 11.128906 13.128906 12 12 12 C 10.871094 12 10 11.128906 10 10 C 10 8.871094 10.871094 8 12 8 Z M 12 36 C 13.128906 36 14 36.871094 14 38 C 14 39.128906 13.128906 40 12 40 C 10.871094 40 10 39.128906 10 38 C 10 36.871094 10.871094 36 12 36 Z M 36 36 C 37.128906 36 38 36.871094 38 38 C 38 39.128906 37.128906 40 36 40 C 34.871094 40 34 39.128906 34 38 C 34 36.871094 34.871094 36 36 36 Z "/>
</g>
</svg>
