<svg xmlns="http://www.w3.org/2000/svg" width="20" height="20" viewBox="0 0 50 50" style="fill: rgb(255, 255, 255);">
    <path d="M 2.84375 3 C 1.27475 3 0 4.27475 0 5.84375 L 0 10 L 50 10 L 50 5.84375 C 50 4.27475 48.72625 3 47.15625 3 L 2.84375 3 z M 0 12 L 0 46 C 0 46.553 0.448 47 1 47 L 49 47 C 49.553 47 50 46.553 50 46 L 50 12 L 0 12 z M 15.09375 19.96875 C 15.34975 19.97225 15.58875 20.0525 15.78125 20.25 L 22.40625 27.0625 L 15.625 33.6875 C 15.431 33.8765 15.1895 33.96875 14.9375 33.96875 C 14.6775 33.96875 14.41475 33.85725 14.21875 33.65625 C 13.83275 33.26025 13.82275 32.636 14.21875 32.25 L 19.59375 27.03125 L 14.375 21.65625 C 13.989 21.26025 13.979 20.635 14.375 20.25 C 14.5725 20.0565 14.83775 19.96525 15.09375 19.96875 z M 23 32 L 36 32 C 36.553 32 37 32.447 37 33 C 37 33.553 36.553 34 36 34 L 23 34 C 22.448 34 22 33.553 22 33 C 22 32.447 22.448 32 23 32 z"/>
</svg>