<svg x="0" y="0" version="1.1" xmlns="http://www.w3.org/2000/svg" xmlns:xlink="http://www.w3.org/1999/xlink" viewBox="0 0 50 50" width="20" height="20" style="fill: rgb(255, 255, 255);"><g fill="none" stroke="none" stroke-width="1" stroke-linecap="butt" stroke-linejoin="miter" stroke-miterlimit="10" stroke-dasharray="" stroke-dashoffset="0" font-family="none" font-weight="normal" font-size="12" text-anchor="start" mix-blend-mode="normal"><g><g><path d="M0,50l0,-50l50,0l0,50z" fill="none" font-family="sans-serif"/><g fill="#ffffff" font-family="Bitstream Vera Sans"><path d="M0.875,2c-0.50296,0.0634 -0.87893,0.49308 -0.875,1l0,38c-0.00268,0.3852 0.21611,0.73771 0.5625,0.90625l12,6c0.27619,0.13436 0.59881,0.13436 0.875,0l11.59375,-5.8125l12.5625,5.8125c0.28097,0.12459 0.60363,0.11307 0.875,-0.03125l11,-6c0.32424,-0.17207 0.52816,-0.50794 0.53125,-0.875l0,-26c0.0051,-0.36064 -0.18438,-0.69608 -0.49587,-0.87789c-0.3115,-0.18181 -0.69676,-0.18181 -1.00825,0c-0.3115,0.18181 -0.50097,0.51725 -0.49587,0.87789l0,25.40625l-10.03125,5.46875l-12.5625,-5.78125c-0.26748,-0.12445 -0.57627,-0.12445 -0.84375,0l-11.5625,5.78125l-11,-5.5l0,-35.75l10.5625,5.28125c0.27619,0.13436 0.59881,0.13436 0.875,0l11.59375,-5.8125l8.34375,3.875c0.33081,0.19806 0.74602,0.1883 1.06717,-0.02507c0.32115,-0.21337 0.49104,-0.59236 0.43665,-0.97407c-0.05439,-0.38172 -0.32336,-0.69817 -0.69133,-0.81336l-8.78125,-4.0625c-0.26748,-0.12445 -0.57627,-0.12445 -0.84375,0l-11.5625,5.78125l-11.5625,-5.78125c-0.17443,-0.08518 -0.36988,-0.11775 -0.5625,-0.09375z M45.125,2c-1.24575,0.00025 -2.487,0.4875 -3.4375,1.4375l-0.5,0.5c-0.08158,0.05161 -0.15527,0.11477 -0.21875,0.1875l-0.09375,0.125l-19.5625,19.5625c-0.13069,0.11848 -0.22772,0.26941 -0.28125,0.4375l-2,7.5c-0.08874,0.34294 0.01055,0.70724 0.26103,0.95772c0.25048,0.25048 0.61478,0.34977 0.95772,0.26103l7.5,-2c0.16809,-0.05353 0.31902,-0.15056 0.4375,-0.28125l19.5625,-19.5625c-0.00067,0.00054 0.0995,-0.06815 0.125,-0.09375c0.10354,-0.08626 0.18857,-0.19255 0.25,-0.3125c0.2142,-0.21434 0.4375,-0.40625 0.4375,-0.40625c1.901,-1.901 1.899,-4.975 0,-6.875c-0.9515,-0.951 -2.19175,-1.43775 -3.4375,-1.4375z M42.28125,5.65625l4.0625,4.0625l-19.375,19.375l-4.0625,-4.0625z"/></g><g fill="none" font-family="sans-serif"/></g></g></g></svg>